<svg width="800" height="800" viewBox="0 0 800 800" fill="none" xmlns="http://www.w3.org/2000/svg">
  <defs>
    <linearGradient id="bg_game" x1="96" y1="86" x2="716" y2="714" gradientUnits="userSpaceOnUse">
      <stop stop-color="#08120D"/>
      <stop offset="1" stop-color="#050505"/>
    </linearGradient>
    <linearGradient id="pad" x1="224" y1="218" x2="576" y2="596" gradientUnits="userSpaceOnUse">
      <stop stop-color="#2C2E31"/>
      <stop offset="1" stop-color="#151618"/>
    </linearGradient>
  </defs>
  <rect width="800" height="800" rx="72" fill="url(#bg_game)"/>
  <circle cx="642" cy="156" r="110" fill="#1DB954" fill-opacity="0.18"/>
  <circle cx="178" cy="646" r="132" fill="#FA243C" fill-opacity="0.14"/>
  <path d="M264 266C296 242 342 228 400 228C458 228 504 242 536 266C568 290 594 332 614 392L646 492C656 522 646 556 620 574C594 592 560 594 532 580L472 550C428 528 372 528 328 550L268 580C240 594 206 592 180 574C154 556 144 522 154 492L186 392C206 332 232 290 264 266Z" fill="url(#pad)" stroke="rgba(255,255,255,0.12)" stroke-width="8"/>
  <rect x="244" y="396" width="104" height="24" rx="12" fill="#0F1012"/>
  <rect x="284" y="356" width="24" height="104" rx="12" fill="#0F1012"/>
  <circle cx="510" cy="378" r="18" fill="#1DB954"/>
  <circle cx="554" cy="422" r="18" fill="#F3D16D"/>
  <circle cx="466" cy="422" r="18" fill="#FA243C"/>
  <circle cx="510" cy="466" r="18" fill="#F6F1E8"/>
  <circle cx="322" cy="334" r="30" fill="#0D0E10" stroke="#404349" stroke-width="6"/>
  <circle cx="478" cy="510" r="30" fill="#0D0E10" stroke="#404349" stroke-width="6"/>
  <path d="M330 566C370 590 430 590 470 566" stroke="#B72832" stroke-width="12" stroke-linecap="round"/>
  <text x="120" y="118" fill="#F6F1E8" fill-opacity="0.86" font-family="Arial, sans-serif" font-size="44" font-weight="700" letter-spacing="10">GRIND</text>
</svg>

