<svg width="800" height="800" viewBox="0 0 800 800" fill="none" xmlns="http://www.w3.org/2000/svg">
  <defs>
    <linearGradient id="bg_merch" x1="98" y1="78" x2="710" y2="724" gradientUnits="userSpaceOnUse">
      <stop stop-color="#111827"/>
      <stop offset="1" stop-color="#050505"/>
    </linearGradient>
  </defs>
  <rect width="800" height="800" rx="72" fill="url(#bg_merch)"/>
  <circle cx="642" cy="148" r="116" fill="#FA243C" fill-opacity="0.16"/>
  <circle cx="168" cy="198" r="82" fill="#38BDF8" fill-opacity="0.14"/>
  <rect x="148" y="248" width="504" height="24" rx="12" fill="#1A1A1D"/>
  <rect x="182" y="426" width="436" height="24" rx="12" fill="#1A1A1D"/>
  <rect x="136" y="248" width="14" height="320" rx="7" fill="#2A2B30"/>
  <rect x="650" y="248" width="14" height="320" rx="7" fill="#2A2B30"/>
  <rect x="208" y="282" width="96" height="126" rx="24" fill="#F6F1E8" fill-opacity="0.1" stroke="rgba(255,255,255,0.12)" stroke-width="4"/>
  <rect x="224" y="304" width="64" height="84" rx="18" fill="#38BDF8" fill-opacity="0.32"/>
  <circle cx="256" cy="298" r="20" fill="#E5E7EB" fill-opacity="0.18"/>
  <path d="M218 564C228 496 274 454 330 454C386 454 432 496 442 564H218Z" fill="#F6F1E8" fill-opacity="0.12"/>
  <rect x="262" y="442" width="136" height="112" rx="28" fill="#F6F1E8" fill-opacity="0.08" stroke="rgba(255,255,255,0.12)" stroke-width="4"/>
  <circle cx="330" cy="474" r="34" fill="#FA243C" fill-opacity="0.28"/>
  <rect x="296" y="512" width="68" height="20" rx="10" fill="#E5E7EB" fill-opacity="0.18"/>
  <rect x="468" y="302" width="100" height="96" rx="24" fill="#F6F1E8" fill-opacity="0.08" stroke="rgba(255,255,255,0.12)" stroke-width="4"/>
  <rect x="486" y="320" width="64" height="60" rx="18" fill="#A78BFA" fill-opacity="0.34"/>
  <circle cx="518" cy="312" r="18" fill="#E5E7EB" fill-opacity="0.18"/>
  <text x="126" y="116" fill="#F6F1E8" fill-opacity="0.86" font-family="Arial, sans-serif" font-size="44" font-weight="700" letter-spacing="10">MERCH</text>
</svg>
