<svg width="800" height="800" viewBox="0 0 800 800" fill="none" xmlns="http://www.w3.org/2000/svg">
  <defs>
    <linearGradient id="bg_setup" x1="80" y1="88" x2="700" y2="714" gradientUnits="userSpaceOnUse">
      <stop stop-color="#111111"/>
      <stop offset="1" stop-color="#050505"/>
    </linearGradient>
    <linearGradient id="screen_setup" x1="214" y1="210" x2="584" y2="486" gradientUnits="userSpaceOnUse">
      <stop stop-color="#2F394A"/>
      <stop offset="1" stop-color="#101A26"/>
    </linearGradient>
  </defs>
  <rect width="800" height="800" rx="72" fill="url(#bg_setup)"/>
  <circle cx="644" cy="132" r="118" fill="#FA243C" fill-opacity="0.14"/>
  <circle cx="168" cy="176" r="84" fill="#1DB954" fill-opacity="0.12"/>
  <rect x="124" y="206" width="552" height="308" rx="32" fill="#14181D" stroke="rgba(255,255,255,0.12)" stroke-width="6"/>
  <rect x="150" y="232" width="500" height="256" rx="22" fill="url(#screen_setup)"/>
  <path d="M184 450C248 386 320 354 402 354C484 354 556 386 618 450" stroke="#F3D16D" stroke-opacity="0.5" stroke-width="10" stroke-linecap="round"/>
  <path d="M196 340H320L362 388H238L196 340Z" fill="#FA243C" fill-opacity="0.72"/>
  <circle cx="546" cy="322" r="48" fill="#1DB954" fill-opacity="0.4"/>
  <rect x="334" y="514" width="132" height="18" rx="9" fill="#424750"/>
  <path d="M282 560H518L550 642H250L282 560Z" fill="#1A1E24"/>
  <rect x="170" y="604" width="460" height="32" rx="16" fill="#0E0F12"/>
  <rect x="228" y="630" width="116" height="14" rx="7" fill="#B72832"/>
  <rect x="364" y="630" width="164" height="14" rx="7" fill="#2B3240"/>
  <text x="128" y="112" fill="#F6F1E8" fill-opacity="0.86" font-family="Arial, sans-serif" font-size="44" font-weight="700" letter-spacing="10">SETUP</text>
</svg>

